# xmcd CD database file
#
# Track frame offsets:
#	150
#	10529
#	20663
#	33410
#	44945
#	56917
#	68699
#	88533
#	100043
#	110977
#	132577
#	141161
#	155203
#	167475
#	180469
#	191558
#	202291
#	214782
#	226846
#
# Disc length: 3155 seconds
#
# Revision: 1
# Processed by: cddbd v1.5.1PL2 Copyright (c) Steve Scherf et al.
# Submitted via: CDex 1.51
#
DISCID=190c5113
DTITLE=Johnny Cash - Best of American Outtakes
DYEAR=1900
DGENRE=Country
TTITLE0=Johnny Cash - Go On Blues
TTITLE1=Johnny Cash - Lucky Old Sun
TTITLE2=Johnny Cash - The Drifter
TTITLE3=Johnny Cash - I Witnessed A Crime
TTITLE4=Johnny Cash - Loving Her Was Easier - take 1
TTITLE5=Johnny Cash - The Devil
TTITLE6=Johnny Cash - To Beat The Devil
TTITLE7=Johnny Cash - East Virgina Blues
TTITLE8=Johnny Cash - The Next Time I'm In Town
TTITLE9=Johnny Cash - Back of the Ohio
TTITLE10=Johnny Cash - Friends In California
TTITLE11=Johnny Cash - Go Where I Send Thee
TTITLE12=Johnny Cash - The Wonder Of You
TTITLE13=Johnny Cash - Bad News
TTITLE14=Johnny Cash - All God's Children Ain't Free
TTITLE15=Johnny Cash - One More Ride
TTITLE16=Johnny Cash - Don't Sell Daddy Any More Whiskey
TTITLE17=Johnny Cash - Two Timing Woman
TTITLE18=Johnny Cash - What On Earth
EXTD=
EXTT0=
EXTT1=
EXTT2=
EXTT3=
EXTT4=
EXTT5=
EXTT6=
EXTT7=
EXTT8=
EXTT9=
EXTT10=
EXTT11=
EXTT12=
EXTT13=
EXTT14=
EXTT15=
EXTT16=
EXTT17=
EXTT18=
PLAYORDER=
